<svg xmlns="http://www.w3.org/2000/svg" viewBox="0 0 512 512">
  <defs>
    <linearGradient id="bg" x1="0%" x2="100%" y1="0%" y2="100%">
      <stop offset="0%" stop-color="#f7c984" />
      <stop offset="100%" stop-color="#f08f66" />
    </linearGradient>
    <linearGradient id="glass" x1="0%" x2="100%" y1="0%" y2="100%">
      <stop offset="0%" stop-color="#ffffff" stop-opacity="0.9" />
      <stop offset="100%" stop-color="#d9f0ff" stop-opacity="0.55" />
    </linearGradient>
  </defs>
  <rect width="512" height="512" rx="132" fill="#0b1324" />
  <circle cx="118" cy="128" r="94" fill="#7ac5ff" fill-opacity="0.12" />
  <circle cx="394" cy="124" r="104" fill="#f7c984" fill-opacity="0.12" />
  <rect x="98" y="108" width="316" height="296" rx="88" fill="url(#bg)" />
  <path
    d="M176 166c0-35.346 28.654-64 64-64h32c35.346 0 64 28.654 64 64v20h-44v-16c0-17.673-14.327-32-32-32h-8c-17.673 0-32 14.327-32 32v172c0 17.673 14.327 32 32 32h8c17.673 0 32-14.327 32-32v-16h44v20c0 35.346-28.654 64-64 64h-32c-35.346 0-64-28.654-64-64V166Z"
    fill="#0b1324"
  />
  <path
    d="M270 198h76c37.555 0 68 30.445 68 68s-30.445 68-68 68h-76v-42h72c14.359 0 26-11.641 26-26s-11.641-26-26-26h-72v-42Z"
    fill="url(#glass)"
  />
</svg>
